<?xml version="1.0" encoding="UTF-8"?>
<svg xmlns="http://www.w3.org/2000/svg" viewBox="0 0 1200 1500">
<defs>
  <linearGradient id="bg" x1="0" y1="0" x2="1" y2="1"><stop stop-color="#090612"/><stop offset=".52" stop-color="#130c24"/><stop offset="1" stop-color="#061a22"/></linearGradient>
  <radialGradient id="orb"><stop stop-color="#f5c1ff"/><stop offset=".28" stop-color="#d050f0"/><stop offset=".7" stop-color="#3533b9"/><stop offset="1" stop-color="#11152f"/></radialGradient>
  <filter id="blur"><feGaussianBlur stdDeviation="24"/></filter>
</defs>
<rect width="1200" height="1500" fill="url(#bg)"/>
<circle cx="820" cy="440" r="315" fill="#cf48ef" opacity=".18" filter="url(#blur)"/>
<circle cx="280" cy="1080" r="240" fill="#22b7d4" opacity=".12" filter="url(#blur)"/>
<g transform="translate(600 640)">
  <circle r="245" fill="url(#orb)"/>
  <circle r="208" fill="none" stroke="#f6d7ff" stroke-width="2" opacity=".75"/>
  <circle r="170" fill="none" stroke="#6ee6f7" stroke-width="1" opacity=".55"/>
  <path d="M-250 0H250M0-250V250" stroke="#fff" opacity=".13"/>
  <g fill="none" stroke="#fff" stroke-width="3" opacity=".75">
    <path d="M-180 20c60-130 95 130 150 0s90-130 150 0 90 130 150 0"/>
    <path d="M-175 52c55-100 85 100 135 0s80-100 132 0 78 100 135 0"/>
  </g>
</g>
<g fill="#f6efff" font-family="Arial,sans-serif">
  <text x="86" y="115" font-size="15" letter-spacing="8" fill="#8be8f5">SONORA / AUDIO LAB</text>
  <text x="86" y="235" font-size="96" font-weight="700" letter-spacing="-4">ECHOES</text>
  <text x="86" y="320" font-size="96" font-weight="700" letter-spacing="-4">AFTER DARK</text>
  <text x="86" y="374" font-size="19" letter-spacing="5" fill="#b2a6c7">A FIVE-TRACK IMMERSIVE LISTENING SERIES</text>
  <text x="86" y="1320" font-size="20" letter-spacing="4">LIVE / 18 NOVEMBER / 21:00</text>
  <text x="86" y="1362" font-size="18" fill="#b4c4d0">WAREHOUSE 08 · RIVERFRONT DISTRICT</text>
  <text x="1114" y="1320" text-anchor="end" font-size="20" fill="#8be8f5">SONORA.LAB</text>
  <text x="1114" y="1362" text-anchor="end" font-size="15" letter-spacing="2" fill="#877e99">LIMITED CAPACITY · TICKETS ONLINE</text>
</g>
<rect x="86" y="1420" width="1028" height="2" fill="#542f74"/>
<text x="86" y="1460" fill="#71667f" font-family="monospace" font-size="12" letter-spacing="3">SOUND IS SPACE / SPACE IS MEMORY / 04—07</text>
</svg>